<?xml version="1.0" encoding="UTF-8"?>
<svg id="Layer_1" data-name="Layer 1" xmlns="http://www.w3.org/2000/svg" viewBox="0 0 1093 324">
  <defs>
    <style>
      .cls-1 {
        fill: #441d66;
      }
    </style>
  </defs>
  <g>
    <path class="cls-1" d="m495.31,73.33h-14.16l-1.96-12.66c-1.87-1.87-4.23-3.35-7.08-4.44-2.85-1.09-6.21-1.63-10.08-1.63-8.27,0-14.63,3-19.09,9.01-4.46,6-6.69,13.83-6.69,23.49v3.33c0,9.66,2.22,17.51,6.66,23.56,4.44,6.05,10.7,9.07,18.79,9.07,3.74,0,7.17-.54,10.28-1.63,3.11-1.09,5.51-2.57,7.21-4.44l1.96-12.66h14.16v18.79c-3.83,4.44-8.71,7.97-14.65,10.6-5.94,2.63-12.58,3.95-19.94,3.95-12.75,0-23.19-4.41-31.32-13.25-8.14-8.83-12.2-20.16-12.2-34v-3.2c0-13.79,4.05-25.12,12.14-34s18.55-13.31,31.39-13.31c7.35,0,13.99,1.34,19.9,4.01,5.92,2.68,10.81,6.21,14.68,10.6v18.79Z"/>
    <path class="cls-1" d="m503.47,124.88l9.2-1.96V47.94l-10.18-1.96v-11.48h29.17v40.2c2.22-3.26,4.94-5.8,8.16-7.6,3.22-1.8,6.79-2.71,10.7-2.71,7.4,0,13.19,2.45,17.39,7.34,4.2,4.89,6.3,12.45,6.3,22.68v28.52l9.14,1.96v11.42h-36.41v-11.42l8.22-1.96v-28.65c0-5.48-.97-9.36-2.9-11.65-1.94-2.28-4.82-3.43-8.65-3.43-2.65,0-4.97.48-6.95,1.44-1.98.96-3.64,2.31-4.99,4.05v38.24l8.22,1.96v11.42h-36.41v-11.42Z"/>
    <path class="cls-1" d="m634.43,136.3c-.52-1.17-.98-2.38-1.37-3.62-.39-1.24-.7-2.49-.91-3.75-2.26,2.61-5.01,4.72-8.25,6.33-3.24,1.61-6.95,2.41-11.13,2.41-6.92,0-12.41-1.88-16.48-5.64-4.07-3.76-6.1-8.88-6.1-15.37s2.65-11.72,7.96-15.34c5.31-3.61,13.09-5.42,23.36-5.42h9.72v-6.92c0-3.39-.98-6.03-2.94-7.9-1.96-1.87-4.85-2.81-8.68-2.81-2.18,0-4.11.25-5.81.75-1.7.5-3.07,1.1-4.11,1.79l-1.24,7.57h-14.36l.07-15.66c3.48-2.35,7.47-4.33,11.97-5.94,4.5-1.61,9.41-2.41,14.72-2.41,8.74,0,15.85,2.14,21.31,6.43,5.46,4.29,8.19,10.39,8.19,18.3v29.17c0,1.09.01,2.11.03,3.07.02.96.1,1.87.23,2.74l5.81.78v11.42h-21.99Zm-16.51-12.73c2.87,0,5.48-.62,7.83-1.86,2.35-1.24,4.18-2.79,5.48-4.67v-10.77h-9.72c-4.05,0-7.11.95-9.2,2.84-2.09,1.89-3.13,4.17-3.13,6.82,0,2.39.77,4.26,2.32,5.61,1.54,1.35,3.69,2.02,6.43,2.02Z"/>
    <path class="cls-1" d="m685.79,48.4v17.29h12.4v13.38h-12.4v35.96c0,2.74.56,4.7,1.7,5.87,1.13,1.17,2.65,1.76,4.57,1.76,1.31,0,2.45-.05,3.43-.16.98-.11,2.08-.29,3.3-.55l1.63,13.77c-2.13.65-4.24,1.14-6.33,1.47-2.09.33-4.35.49-6.79.49-6.57,0-11.63-1.8-15.17-5.42-3.55-3.61-5.32-9.33-5.32-17.16v-36.02h-10.38v-13.38h10.38v-17.29h18.99Z"/>
  </g>
  <g>
    <path class="cls-1" d="m1015.19,275.13h-18.99v-16.71h18.99v16.71Z"/>
    <path class="cls-1" d="m495.31,212.16h-14.16l-1.96-12.66c-1.87-1.87-4.23-3.35-7.08-4.44-2.85-1.09-6.21-1.63-10.08-1.63-8.27,0-14.63,3-19.09,9.01-4.46,6-6.69,13.83-6.69,23.49v3.33c0,9.66,2.22,17.51,6.66,23.56,4.44,6.05,10.7,9.07,18.79,9.07,3.74,0,7.17-.54,10.28-1.63,3.11-1.09,5.51-2.57,7.21-4.44l1.96-12.66h14.16v18.79c-3.83,4.44-8.71,7.97-14.65,10.6-5.94,2.63-12.58,3.95-19.93,3.95-12.75,0-23.19-4.41-31.32-13.25-8.14-8.83-12.2-20.16-12.2-34v-3.2c0-13.79,4.05-25.12,12.14-34s18.55-13.31,31.39-13.31c7.35,0,13.99,1.34,19.9,4.01,5.92,2.68,10.81,6.21,14.68,10.6v18.79Z"/>
    <path class="cls-1" d="m504.51,239.17c0-10.53,2.95-19.15,8.84-25.87,5.89-6.72,14.04-10.08,24.44-10.08s18.61,3.35,24.5,10.05c5.89,6.7,8.84,15.34,8.84,25.91v1.37c0,10.62-2.95,19.26-8.84,25.94-5.9,6.68-14.02,10.02-24.37,10.02s-18.67-3.34-24.57-10.02c-5.9-6.68-8.84-15.32-8.84-25.94v-1.37Zm19.05,1.37c0,6.44,1.13,11.61,3.39,15.5,2.26,3.89,5.92,5.84,10.96,5.84s8.52-1.96,10.8-5.87c2.28-3.92,3.43-9.07,3.43-15.47v-1.37c0-6.26-1.15-11.38-3.46-15.33-2.31-3.96-5.94-5.94-10.9-5.94s-8.57,1.98-10.83,5.94c-2.26,3.96-3.39,9.07-3.39,15.33v1.37Z"/>
    <path class="cls-1" d="m578.38,263.71l9.14-1.96v-43.79l-10.11-1.96v-11.48h27.86l.85,10.11c2.35-3.61,5.24-6.42,8.68-8.42,3.44-2,7.29-3,11.55-3,7.13,0,12.7,2.24,16.71,6.72,4,4.48,6,11.51,6,21.08v30.74l9.14,1.96v11.42h-36.41v-11.42l8.16-1.96v-30.67c0-4.74-.96-8.1-2.87-10.08-1.91-1.98-4.81-2.97-8.68-2.97-2.52,0-4.79.51-6.79,1.53-2,1.02-3.68,2.47-5.02,4.34v37.85l7.7,1.96v11.42h-35.89v-11.42Z"/>
    <path class="cls-1" d="m692.38,187.23v17.29h12.4v13.38h-12.4v35.96c0,2.74.56,4.7,1.7,5.87,1.13,1.17,2.65,1.76,4.57,1.76,1.31,0,2.45-.05,3.43-.16.98-.11,2.08-.29,3.3-.55l1.63,13.77c-2.13.65-4.24,1.14-6.33,1.47-2.09.33-4.35.49-6.79.49-6.57,0-11.63-1.8-15.17-5.42-3.55-3.61-5.32-9.33-5.32-17.16v-36.02h-10.38v-13.38h10.38v-17.29h18.99Z"/>
    <path class="cls-1" d="m715.54,263.71l9.14-1.96v-43.79l-10.11-1.96v-11.48h27.86l.85,10.31c1.65-3.65,3.78-6.5,6.39-8.55,2.61-2.04,5.63-3.07,9.07-3.07,1,0,2.05.08,3.16.23,1.11.15,2.03.34,2.77.55l-2.02,17.36-7.83-.2c-2.79,0-5.09.54-6.92,1.63-1.83,1.09-3.22,2.63-4.18,4.63v34.32l9.14,1.96v11.42h-37.33v-11.42Z"/>
    <path class="cls-1" d="m769.05,239.17c0-10.53,2.95-19.15,8.84-25.87,5.89-6.72,14.04-10.08,24.44-10.08s18.61,3.35,24.5,10.05c5.89,6.7,8.84,15.34,8.84,25.91v1.37c0,10.62-2.95,19.26-8.84,25.94-5.9,6.68-14.02,10.02-24.37,10.02s-18.67-3.34-24.57-10.02c-5.9-6.68-8.84-15.32-8.84-25.94v-1.37Zm19.05,1.37c0,6.44,1.13,11.61,3.39,15.5,2.26,3.89,5.92,5.84,10.96,5.84s8.52-1.96,10.8-5.87c2.28-3.92,3.43-9.07,3.43-15.47v-1.37c0-6.26-1.15-11.38-3.46-15.33-2.31-3.96-5.94-5.94-10.9-5.94s-8.57,1.98-10.83,5.94c-2.26,3.96-3.39,9.07-3.39,15.33v1.37Z"/>
    <path class="cls-1" d="m840.64,184.82v-11.48h29.23v88.42l9.2,1.96v11.42h-37.46v-11.42l9.2-1.96v-74.98l-10.18-1.96Z"/>
    <path class="cls-1" d="m918.68,275.13v-12.46l30.74-32.95c4.44-5.09,7.59-9.39,9.46-12.89,1.87-3.5,2.81-6.75,2.81-9.76,0-4-1.08-7.28-3.23-9.82-2.15-2.54-5.21-3.82-9.17-3.82-4.39,0-7.73,1.49-10.02,4.47-2.28,2.98-3.43,6.95-3.43,11.91h-18.53l-.13-.39c-.22-8.57,2.6-15.82,8.45-21.76,5.85-5.94,13.74-8.91,23.65-8.91s17.49,2.54,23.1,7.63,8.42,11.88,8.42,20.36c0,5.74-1.58,11.05-4.73,15.92-3.15,4.87-8.39,11.22-15.69,19.05l-16.9,18.47.13.33h24.67l.78-9.4h14.49v24.01h-64.86Z"/>
    <path class="cls-1" d="m1092.46,238.13c0,12.57-2.88,22.11-8.65,28.61-5.77,6.5-13.56,9.76-23.39,9.76s-17.77-3.25-23.56-9.76c-5.79-6.5-8.68-16.04-8.68-28.61v-20.95c0-12.53,2.88-22.07,8.65-28.61,5.76-6.55,13.58-9.82,23.46-9.82s17.65,3.27,23.46,9.82c5.81,6.55,8.71,16.09,8.71,28.61v20.95Zm-18.99-22.9c0-7.53-1.13-13.04-3.39-16.54-2.26-3.5-5.53-5.25-9.79-5.25s-7.57,1.74-9.79,5.22c-2.22,3.48-3.33,9.01-3.33,16.57v24.73c0,7.66,1.12,13.23,3.36,16.71,2.24,3.48,5.54,5.22,9.89,5.22s7.5-1.74,9.72-5.22c2.22-3.48,3.33-9.05,3.33-16.71v-24.73Z"/>
  </g>
  <g>
    <path class="cls-1" d="m188.75,233.58c-12.81,0-25.94-2.57-38.69-7.85-17.36-7.19-32.05-18.66-42.49-33.16-11.35-15.76-17.01-34.39-16.4-53.92-.6-19.33,4.98-37.82,16.14-53.51,10.28-14.45,24.78-25.95,41.92-33.24,36.84-15.68,77.45-8.48,103.46,18.35l-14.36,13.92c-10.38-10.7-23.73-17.52-38.61-19.71-14.07-2.07-28.83-.05-42.67,5.84-22.99,9.79-47.12,32.79-45.89,68v.35s0,.35,0,.35c-1.25,35.59,23.23,58.59,46.55,68.25,14.02,5.81,28.92,7.67,43.08,5.39,14.98-2.42,28.32-9.51,38.59-20.53l14.63,13.64c-16.97,18.21-40.49,27.83-65.26,27.83Z"/>
    <path class="cls-1" d="m188.53,191.64c-7.17,0-14.51-1.43-21.63-4.38-20.72-8.58-33.67-27.78-33.08-48.96-.58-20.96,12.18-40.08,32.61-48.77,20.68-8.8,43.54-4.69,58.23,10.46l-14.36,13.92c-10.79-11.13-25.69-10.38-36.04-5.98-10.24,4.36-20.98,14.53-20.44,30.02v.35s0,.35,0,.35c-.55,15.65,10.35,25.83,20.73,30.13,10.51,4.35,25.54,4.92,36.22-6.54l14.63,13.64c-9.61,10.31-22.9,15.76-36.87,15.76Z"/>
    <path class="cls-1" d="m327.67,138.44c-.72-42.64-16.3-78.55-45.05-103.84C257.19,12.24,223.28-.08,187.13-.08h-.01C150.97-.08,117.06,12.23,91.65,34.59c-28.76,25.29-44.34,61.2-45.07,103.85v.21s0,.21,0,.21c.59,34.55,10.92,64.67,30.12,88.32L4.27,299.6c-5.47,5.47-5.47,14.33,0,19.8,2.73,2.73,6.32,4.1,9.9,4.1s7.17-1.37,9.9-4.1l72.54-72.54c24.79,19.72,56.66,30.52,90.51,30.52h.01c36.15,0,70.06-12.31,95.48-34.67,28.76-25.29,44.34-61.2,45.07-103.85v-.21s0-.21,0-.21Zm-61.58,85.5c-20.85,18.34-48.89,28.44-78.97,28.44h0c-30.07,0-58.12-10.1-78.97-28.45-23.28-20.48-35.92-49.97-36.57-85.29.65-35.32,13.3-64.81,36.58-85.29,20.85-18.34,48.9-28.44,78.97-28.44h0c30.07,0,58.12,10.1,78.97,28.45,23.28,20.48,35.92,49.96,36.57,85.28-.65,35.33-13.3,64.82-36.58,85.29Z"/>
  </g>
</svg>